<?xml version="1.0" encoding="UTF-8"?>
<svg id="Layer_1" xmlns="http://www.w3.org/2000/svg" version="1.1" viewBox="0 0 1080 1080">
  <defs>
    <style>
      .st0 {
        stroke-dasharray: 54.98 21.99;
      }

      .st0, .st1 {
        fill: none;
        stroke: #000;
        stroke-linejoin: round;
        stroke-width: 15px;
      }

      .st3 {
        fill: #ffcd09;
      }
    </style>
  </defs>
  <g>
    <path d="M283.82,499.28v-69.05h-27.34v-19.96h79.73v19.96h-27.21v69.05h-25.18Z"/>
    <path d="M417.84,459.85v39.43h-24.16v-35.48c0-4.9-1-8.49-2.98-10.75-2-2.24-4.76-3.36-8.33-3.36-2.54,0-4.88.58-7,1.72-2.12,1.14-3.76,2.9-4.94,5.26-1.2,2.38-1.78,5.48-1.78,9.29v33.32h-24.18v-94.34h24.18v31.8c1.56-1.48,3.3-2.72,5.2-3.76,4.58-2.5,9.75-3.76,15.51-3.76,5.34,0,10.19,1.08,14.51,3.24,4.32,2.16,7.73,5.48,10.23,9.99,2.5,4.48,3.74,10.31,3.74,17.41Z"/>
    <path d="M499.35,445.49c-3.3-5.32-7.74-9.39-13.35-12.13-5.6-2.76-11.79-4.14-18.57-4.14-7.2,0-13.69,1.5-19.45,4.52-5.76,3-10.27,7.2-13.53,12.59-3.28,5.38-4.9,11.51-4.9,18.37s1.68,12.99,5.02,18.37c3.34,5.38,8.05,9.63,14.11,12.71,6.06,3.1,13.17,4.64,21.29,4.64,6.62,0,12.35-.96,17.17-2.86,4.84-1.9,8.91-4.68,12.21-8.33l-12.71-13.23c-2.38,2.04-4.78,3.54-7.18,4.52-2.42.98-5.32,1.46-8.71,1.46-3.66,0-6.78-.66-9.43-1.98-2.62-1.3-4.64-3.18-6.02-5.64-.6-1.06-1.08-2.2-1.42-3.44h50.05c.08-.92.16-1.94.26-3.04.08-1.1.12-2.08.12-2.94,0-7.63-1.66-14.11-4.96-19.45ZM453.5,458.21c.28-1.64.78-3.14,1.48-4.52,1.18-2.32,2.86-4.12,5.02-5.4,2.16-1.26,4.68-1.9,7.57-1.9s5.4.64,7.57,1.9c2.16,1.28,3.84,3.06,5.08,5.34.72,1.36,1.22,2.9,1.5,4.58h-28.22Z"/>
    <polygon class="st3" points="346.63 529.48 312.57 586.6 312.57 618.5 287.39 618.5 287.39 586.22 253.43 529.48 280.01 529.48 301.06 564.81 322.24 529.48 346.63 529.48"/>
    <path class="st3" d="M409.71,564.71c-3.3-5.34-7.77-9.39-13.35-12.13-5.6-2.76-11.79-4.14-18.57-4.14-7.2,0-13.69,1.5-19.45,4.52-5.76,3-10.29,7.2-13.55,12.59-3.26,5.38-4.88,11.51-4.88,18.37s1.66,12.99,5.02,18.37c3.34,5.38,8.05,9.61,14.11,12.71s13.15,4.64,21.29,4.64c6.6,0,12.33-.96,17.17-2.86,4.82-1.9,8.91-4.68,12.21-8.33l-12.73-13.23c-2.36,2.04-4.76,3.54-7.18,4.52-2.4.96-5.3,1.46-8.71,1.46-3.64,0-6.78-.66-9.41-1.98-2.62-1.3-4.64-3.2-6.04-5.64-.6-1.06-1.08-2.2-1.42-3.44h50.05c.1-.94.18-1.94.26-3.04s.14-2.08.14-2.94c0-7.63-1.66-14.11-4.96-19.45ZM363.86,577.43c.28-1.64.76-3.14,1.46-4.52,1.2-2.32,2.86-4.12,5.02-5.4,2.16-1.26,4.68-1.9,7.57-1.9s5.4.64,7.57,1.9c2.16,1.28,3.86,3.06,5.1,5.34.74,1.38,1.24,2.9,1.5,4.58h-28.22Z"/>
    <path class="st3" d="M425.86,618.5v-94.35h24.16v94.35h-24.16Z"/>
    <path class="st3" d="M465.66,618.5v-94.35h24.16v94.35h-24.16Z"/>
    <path class="st3" d="M540.04,619.64c-7.55,0-14.24-1.53-20.09-4.58-5.85-3.05-10.45-7.27-13.8-12.65-3.35-5.38-5.02-11.55-5.02-18.5s1.67-13.1,5.02-18.44c3.35-5.34,7.95-9.51,13.8-12.52,5.85-3.01,12.54-4.51,20.09-4.51s14.26,1.51,20.16,4.51c5.89,3.01,10.49,7.18,13.8,12.52,3.3,5.34,4.96,11.49,4.96,18.44s-1.65,13.12-4.96,18.5c-3.31,5.38-7.91,9.6-13.8,12.65-5.89,3.05-12.61,4.58-20.16,4.58ZM540.04,600.44c2.8,0,5.28-.64,7.44-1.91,2.16-1.27,3.88-3.16,5.15-5.66,1.27-2.5,1.91-5.49,1.91-8.96s-.64-6.42-1.91-8.84c-1.27-2.42-2.99-4.26-5.15-5.53-2.16-1.27-4.64-1.91-7.44-1.91s-5.15.64-7.31,1.91c-2.16,1.27-3.9,3.12-5.21,5.53-1.32,2.42-1.97,5.36-1.97,8.84s.66,6.47,1.97,8.96c1.31,2.5,3.05,4.39,5.21,5.66,2.16,1.27,4.6,1.91,7.31,1.91Z"/>
    <polygon class="st3" points="702.43 549.57 677.87 618.5 654.48 618.5 641.45 580.94 628.04 618.5 604.65 618.5 580.09 549.57 602.98 549.57 617.07 591.3 631.72 549.57 652.32 549.57 666.53 591.64 681.2 549.57 702.43 549.57"/>
  </g>
  <g>
    <path class="st1" d="M405.13,416.83c5.03-7.69,10.5-15.06,16.39-22.06"/>
    <path class="st0" d="M436.46,378.63c41.19-40.42,97.63-65.35,159.9-65.35,126.09,0,228.3,102.22,228.3,228.3s-102.22,228.3-228.3,228.3c-60.51,0-115.52-23.54-156.37-61.96"/>
    <path class="st1" d="M432.16,700.2c-6.37-6.59-12.34-13.56-17.88-20.88"/>
    <polygon points="437.65 671.93 396.11 651.33 399.04 697.6 437.65 671.93"/>
  </g>
  <g>
    <path d="M468.86,648.86v28.05h-10.96v-28.05h-10.64v-8.7h32.3v8.7h-10.7Z"/>
    <path d="M512.75,667h-5.77v9.91h-10.91v-36.75h17.14c9.86,0,15.52,4.72,15.52,13.05,0,5.45-2.2,9.44-6.19,11.69l7.45,12.01h-12.37l-4.88-9.91ZM513.22,658.61c3.25,0,5.14-1.78,5.14-5.09s-1.89-4.98-5.14-4.98h-6.24v10.07h6.24Z"/>
    <path d="M557.11,671.04l-2.2,5.87h-11.22l15.68-36.75h11.22l15.15,36.75h-11.64l-2.15-5.87h-14.84ZM564.66,651.06l-4.51,12.01h8.91l-4.4-12.01Z"/>
    <path d="M633.35,646.35l-6.29,7.45c-2.31-2.94-5.71-4.88-8.76-4.88-4.98,0-8.75,4.04-8.75,9.44s3.77,9.49,8.75,9.49c2.83,0,6.24-1.68,8.76-4.25l6.29,6.71c-3.99,4.3-10.01,7.08-15.57,7.08-11.17,0-19.4-8.07-19.4-18.93s8.39-18.61,19.77-18.61c5.56,0,11.48,2.52,15.21,6.5Z"/>
    <path d="M664.82,663.49l-4.14,4.61v8.81h-10.91v-36.75h10.91v14.16l12.32-14.16h12.58l-13.32,14.94,14.16,21.81h-13.05l-8.55-13.42Z"/>
  </g>
</svg>
